# xmcd
#
# Track frame offsets: 
#        150
#        21573
#        38416
#        52282
#        73917
#        87337
#        105166
#        126692
#        141710
#        156703
#        173000
#        190875
#        208276
#        223115
#        238601
#        253159
#        275103
#        292422
#        315847
#        330055
#
# Disc length: 4655 seconds
#
# Revision: 0
# Processed by: cddbd v1.5.2PL0 Copyright (c) Steve Scherf et al.
# Submitted via: ExactAudioCopy v0.99pb5
#
DISCID=4a122d14
DTITLE=Jesse Winchester - Nothing But A Breeze and A Touch On The Rainy 
DTITLE=Side
DYEAR=1900
DGENRE=
TTITLE0=Nothing but a breeze
TTITLE1=My songbird
TTITLE2=Seems like only yesterday
TTITLE3=You remember me
TTITLE4=Twigs and seeds
TTITLE5=Gilding the lily
TTITLE6=Bowling green
TTITLE7=Pourquoi m'aimes-tu pas
TTITLE8=It takes a young girl
TTITLE9=Rhumba man
TTITLE10=A rouch on the rainy side
TTITLE11=A showman's life
TTITLE12=Sassy
TTITLE13=Candida
TTITLE14=High ball
TTITLE15=Little glass of wine
TTITLE16=Holly
TTITLE17=Wintry feeling
TTITLE18=Just now it feels so right
TTITLE19=I'm looking for a miracle
EXTD=
EXTT0=
EXTT1=
EXTT2=
EXTT3=
EXTT4=
EXTT5=
EXTT6=
EXTT7=
EXTT8=
EXTT9=
EXTT10=
EXTT11=
EXTT12=
EXTT13=
EXTT14=
EXTT15=
EXTT16=
EXTT17=
EXTT18=
EXTT19=
PLAYORDER=
